<svg width="32" height="33" viewBox="0 0 32 33" fill="none" xmlns="http://www.w3.org/2000/svg">
<path fill-rule="evenodd" clip-rule="evenodd" d="M24.7071 7.79289C25.0976 8.18342 25.0976 8.81658 24.7071 9.20711L8.70711 25.2071C8.31658 25.5976 7.68342 25.5976 7.29289 25.2071C6.90237 24.8166 6.90237 24.1834 7.29289 23.7929L23.2929 7.79289C23.6834 7.40237 24.3166 7.40237 24.7071 7.79289Z" fill="#FAA829"/>
<path fill-rule="evenodd" clip-rule="evenodd" d="M10 8.5C10 7.94772 10.4477 7.5 11 7.5H24C24.5523 7.5 25 7.94772 25 8.5V21.5C25 22.0523 24.5523 22.5 24 22.5C23.4477 22.5 23 22.0523 23 21.5V9.5H11C10.4477 9.5 10 9.05228 10 8.5Z" fill="#FAA829"/>
</svg>
