<svg width="22" height="22" viewBox="0 0 22 22" fill="none" xmlns="http://www.w3.org/2000/svg">
<path d="M19.8343 12.6844C19.7655 11.8938 19.1124 11.3438 18.3218 11.3438H3.67804C2.88742 11.3438 2.26867 11.9281 2.16554 12.6844L1.44367 19.9031C1.40929 20.3156 1.54679 20.7625 1.82179 21.0719C2.09679 21.3812 2.50929 21.5531 2.95617 21.5531H19.078C19.4905 21.5531 19.903 21.3812 20.2124 21.0719C20.4874 20.7625 20.6249 20.35 20.5905 19.9031L19.8343 12.6844ZM19.2843 20.2812C19.2499 20.3156 19.1812 20.3844 19.0437 20.3844H2.95617C2.85304 20.3844 2.74992 20.3156 2.71554 20.2812C2.68117 20.2469 2.61242 20.1781 2.64679 20.0406L3.36867 12.7875C3.36867 12.6156 3.50617 12.5125 3.67804 12.5125H18.3562C18.528 12.5125 18.6312 12.6156 18.6655 12.7875L19.3874 20.0406C19.353 20.1438 19.3187 20.2469 19.2843 20.2812Z" fill="white"/>
<path d="M11 14.0249C9.65937 14.0249 8.59375 15.0905 8.59375 16.4312C8.59375 17.7718 9.65937 18.8374 11 18.8374C12.3406 18.8374 13.4062 17.7718 13.4062 16.4312C13.4062 15.0905 12.3406 14.0249 11 14.0249ZM11 17.6343C10.3469 17.6343 9.79688 17.0843 9.79688 16.4312C9.79688 15.778 10.3469 15.228 11 15.228C11.6531 15.228 12.2031 15.778 12.2031 16.4312C12.2031 17.0843 11.6531 17.6343 11 17.6343Z" fill="white"/>
<path d="M2.26875 6.73745C2.3375 8.24995 3.67812 8.8687 4.36562 8.8687H6.77188C6.80625 8.8687 6.80625 8.8687 6.80625 8.8687C7.8375 8.79995 8.86875 8.11245 8.86875 6.73745V5.91245C10.0031 5.91245 12.6156 5.91245 13.75 5.91245V6.73745C13.75 8.11245 14.7812 8.79995 15.8125 8.8687H15.8469H18.2188C18.9062 8.8687 20.2469 8.24995 20.3156 6.73745C20.3156 6.63433 20.3156 6.2562 20.3156 5.91245C20.3156 5.63745 20.3156 5.39683 20.3156 5.36245C20.3156 5.32808 20.3156 5.2937 20.3156 5.2937C20.2125 4.3312 19.8687 3.54058 19.2844 2.92183L19.25 2.88745C18.3906 2.09683 17.3594 1.64995 16.5688 1.37495C14.2656 0.481201 11.3781 0.481201 11.2406 0.481201C9.2125 0.515576 7.90625 0.687451 5.94687 1.37495C5.19062 1.61558 4.15938 2.06245 3.3 2.85308L3.26562 2.88745C2.68125 3.5062 2.3375 4.29683 2.23438 5.25933C2.23438 5.2937 2.23438 5.32807 2.23438 5.32807C2.23438 5.39682 2.23438 5.60308 2.23438 5.87808C2.26875 6.18745 2.26875 6.59995 2.26875 6.73745ZM4.125 3.71245C4.8125 3.0937 5.67188 2.71558 6.39375 2.44058C8.18125 1.78745 9.35 1.64995 11.3094 1.61558C11.4469 1.61558 14.1281 1.64995 16.1906 2.44058C16.9125 2.71558 17.7719 3.05933 18.4594 3.71245C18.8375 4.12495 19.0781 4.67495 19.1469 5.32807C19.1469 5.4312 19.1469 5.60308 19.1469 5.87808C19.1469 6.22183 19.1469 6.59995 19.1469 6.70307C19.1125 7.4937 18.3562 7.66557 18.2531 7.66557H15.8813C15.5375 7.6312 14.9875 7.4937 14.9875 6.73745V5.32807C14.9875 5.05308 14.8156 4.84683 14.575 4.7437C14.3688 4.67495 8.35313 4.67495 8.14688 4.7437C7.90625 4.81245 7.73438 5.05308 7.73438 5.32807V6.73745C7.73438 7.4937 7.18437 7.6312 6.84062 7.66557H4.46875C4.36562 7.66557 3.60937 7.4937 3.575 6.70307C3.575 6.59995 3.575 6.22183 3.575 5.87808C3.575 5.60308 3.575 5.46558 3.575 5.36245C3.50625 4.67495 3.74688 4.12495 4.125 3.71245Z" fill="white"/>
</svg>
