<svg width="22" height="22" viewBox="0 0 22 22" fill="none" xmlns="http://www.w3.org/2000/svg">
<path d="M19.6968 6.77189H18.6655L16.328 0.825019C16.1905 0.515644 15.8468 0.378144 15.5374 0.481269C15.228 0.618769 15.0905 0.962519 15.1937 1.27189L17.3593 6.80627H4.60615L6.77178 1.27189C6.90928 0.962519 6.7374 0.618769 6.42803 0.481269C6.11865 0.343769 5.7749 0.515644 5.6374 0.825019L3.2999 6.77189H2.26865C1.75303 6.77189 1.30615 7.18439 1.30615 7.7344V10.6563C1.30615 11.1719 1.71865 11.6188 2.26865 11.6188H2.30303L3.19678 19.4563C3.33428 20.6594 4.36553 21.5875 5.60303 21.5875H16.328C17.5655 21.5875 18.5968 20.6594 18.7343 19.4563L19.628 11.6188H19.6624C20.178 11.6188 20.6249 11.2063 20.6249 10.6563V7.7344C20.6593 7.21877 20.2468 6.77189 19.6968 6.77189ZM2.54365 7.97502H19.4562V10.3813H2.54365V7.97502ZM17.5655 19.2844C17.4968 19.9031 16.9812 20.35 16.3624 20.35H5.6374C5.01865 20.35 4.50303 19.9031 4.43428 19.2844L3.54053 11.5844H18.4593L17.5655 19.2844Z" fill="#1E232D"/>
<path d="M7.39048 17.4625C7.73423 17.4625 8.00923 17.1875 8.00923 16.8438V14.1969C8.00923 13.8531 7.73423 13.5781 7.39048 13.5781C7.04673 13.5781 6.77173 13.8531 6.77173 14.1969V16.8438C6.77173 17.1875 7.04673 17.4625 7.39048 17.4625Z" fill="#1E232D"/>
<path d="M14.6092 17.4625C14.953 17.4625 15.228 17.1875 15.228 16.8438V14.1969C15.228 13.8531 14.953 13.5781 14.6092 13.5781C14.2655 13.5781 13.9905 13.8531 13.9905 14.1969V16.8438C14.0249 17.1875 14.2999 17.4625 14.6092 17.4625Z" fill="#1E232D"/>
</svg>
