<svg width="24" height="24" viewBox="0 0 24 24" fill="none" xmlns="http://www.w3.org/2000/svg">
<path d="M8 14.5351C5.60879 15.2267 4 16.5194 4 18C4 20.2091 7.58172 22 12 22C16.4183 22 20 20.2091 20 18C20 16.5194 18.3912 15.2267 16 14.5351M18 8.4C18 11.9346 13.5 18 12 18C10.5 18 6 11.9346 6 8.4C6 4.86538 8.68629 2 12 2C15.3137 2 18 4.86538 18 8.4ZM14 8C14 9.10457 13.1046 10 12 10C10.8954 10 10 9.10457 10 8C10 6.89543 10.8954 6 12 6C13.1046 6 14 6.89543 14 8Z" stroke="#1E232D" stroke-width="1.5"/>
</svg>
