<svg width="21" height="26" viewBox="0 0 21 26" fill="none" xmlns="http://www.w3.org/2000/svg">
<g clip-path="url(#clip0_1198_1069)">
<path d="M10.4167 13C8.98438 13 7.8125 11.875 7.8125 10.5C7.8125 9.125 8.98438 8 10.4167 8C11.849 8 13.0208 9.125 13.0208 10.5C13.0208 11.875 11.849 13 10.4167 13ZM18.2292 10.75C18.2292 6.2125 14.7786 3 10.4167 3C6.05469 3 2.60417 6.2125 2.60417 10.75C2.60417 13.675 5.14323 17.55 10.4167 22.175C15.6901 17.55 18.2292 13.675 18.2292 10.75ZM10.4167 0.5C15.8854 0.5 20.8333 4.525 20.8333 10.75C20.8333 14.9 17.3568 19.8125 10.4167 25.5C3.47656 19.8125 0 14.9 0 10.75C0 4.525 4.94792 0.5 10.4167 0.5Z" fill="white"/>
</g>
<defs>
<clipPath id="clip0_1198_1069">
<rect width="20.8333" height="25" fill="white" transform="translate(0 0.5)"/>
</clipPath>
</defs>
</svg>
