<svg width="19" height="21" viewBox="0 0 19 21" fill="none" xmlns="http://www.w3.org/2000/svg">
<path d="M11 4.59141C12.7048 5.19398 14.056 6.54517 14.6586 8.25M11.9655 1.75C14.5505 2.65178 16.5982 4.69948 17.5 7.28451M8.58101 11.669C7.48312 10.5711 6.6162 9.32969 5.98026 8.00516C5.92556 7.89123 5.89821 7.83426 5.8772 7.76218C5.80252 7.50601 5.85616 7.19146 6.0115 6.97452C6.05521 6.91347 6.10744 6.86125 6.21189 6.7568C6.53133 6.43736 6.69105 6.27764 6.79547 6.11703C7.18927 5.51134 7.18927 4.7305 6.79547 4.12481C6.69104 3.9642 6.53133 3.80448 6.21189 3.48504L6.03383 3.30699C5.54825 2.8214 5.30546 2.57861 5.0447 2.44672C4.52611 2.18443 3.91369 2.18443 3.3951 2.44672C3.13434 2.57861 2.89155 2.82141 2.40597 3.30699L2.26193 3.45102C1.77801 3.93494 1.53605 4.17691 1.35126 4.50587C1.1462 4.8709 0.998762 5.43785 1.00001 5.85653C1.00113 6.23385 1.07432 6.49172 1.22071 7.00746C2.00738 9.77911 3.49168 12.3945 5.6736 14.5764C7.85553 16.7583 10.4709 18.2426 13.2425 19.0293C13.7583 19.1757 14.0162 19.2489 14.3935 19.25C14.8121 19.2512 15.3791 19.1038 15.7441 18.8987C16.0731 18.7139 16.3151 18.472 16.799 17.9881L16.943 17.844C17.4286 17.3584 17.6714 17.1157 17.8033 16.8549C18.0656 16.3363 18.0656 15.7239 17.8033 15.2053C17.6714 14.9445 17.4286 14.7018 16.943 14.2162L16.765 14.0381C16.4455 13.7187 16.2858 13.559 16.1252 13.4545C15.5195 13.0607 14.7387 13.0607 14.133 13.4545C13.9724 13.559 13.8126 13.7187 13.4932 14.0381C13.3888 14.1426 13.3365 14.1948 13.2755 14.2385C13.0585 14.3938 12.744 14.4475 12.4878 14.3728C12.4157 14.3518 12.3588 14.3244 12.2448 14.2697C10.9203 13.6338 9.67891 12.7669 8.58101 11.669Z" stroke="white" stroke-width="2" stroke-linecap="round"/>
</svg>
