<svg width="24" height="25" viewBox="0 0 24 25" fill="none" xmlns="http://www.w3.org/2000/svg">
<path d="M5.18404 20.7657L5.52453 20.0974H5.52453L5.18404 20.7657ZM3.43597 19.0176L2.76772 19.3581L3.43597 19.0176ZM20.564 19.0176L19.8958 18.6771L20.564 19.0176ZM18.816 20.7657L19.1565 21.4339L18.816 20.7657ZM7.25 21.2017C7.25 21.6159 7.58579 21.9517 8 21.9517C8.41421 21.9517 8.75 21.6159 8.75 21.2017H7.25ZM15.25 21.2017C15.25 21.6159 15.5858 21.9517 16 21.9517C16.4142 21.9517 16.75 21.6159 16.75 21.2017H15.25ZM9 8.20166L8.26456 8.05457L8.25 8.1274V8.20166H9ZM3.02439 8.586L2.28045 8.68114L3.02439 8.586ZM15 8.20166H15.75V8.1274L15.7354 8.05457L15 8.20166ZM20.9633 8.67199L20.2225 8.55533V8.55534L20.9633 8.67199ZM3.14305 7.84404L3.8394 8.12259H3.8394L3.14305 7.84404ZM4.49711 4.45888L5.19347 4.73742L4.49711 4.45888ZM19.0528 4.30723L18.382 4.64264V4.64264L19.0528 4.30723ZM20.7889 7.77937L21.4597 7.44396V7.44396L20.7889 7.77937ZM20.25 8.20176V14.8017H21.75V8.20176H20.25ZM14.6 20.4517H9.4V21.9517H14.6V20.4517ZM3.75 14.8017V8.20176H2.25V14.8017H3.75ZM9.4 20.4517C8.26752 20.4517 7.46326 20.4511 6.83388 20.3997C6.21325 20.3489 5.829 20.2526 5.52453 20.0974L4.84354 21.4339C5.39472 21.7148 5.99834 21.8364 6.71173 21.8947C7.41637 21.9522 8.29227 21.9517 9.4 21.9517V20.4517ZM2.25 14.8017C2.25 15.9094 2.24942 16.7853 2.30699 17.4899C2.36527 18.2033 2.48688 18.8069 2.76772 19.3581L4.10423 18.6771C3.94909 18.3727 3.85271 17.9884 3.80201 17.3678C3.75058 16.7384 3.75 15.9341 3.75 14.8017H2.25ZM5.52453 20.0974C4.913 19.7858 4.41582 19.2887 4.10423 18.6771L2.76772 19.3581C3.22312 20.2519 3.94978 20.9785 4.84355 21.4339L5.52453 20.0974ZM20.25 14.8017C20.25 15.9341 20.2494 16.7384 20.198 17.3678C20.1473 17.9884 20.0509 18.3727 19.8958 18.6771L21.2323 19.3581C21.5131 18.8069 21.6347 18.2033 21.693 17.4899C21.7506 16.7853 21.75 15.9094 21.75 14.8017H20.25ZM14.6 21.9517C15.7077 21.9517 16.5836 21.9522 17.2883 21.8947C18.0017 21.8364 18.6053 21.7148 19.1565 21.4339L18.4755 20.0974C18.171 20.2526 17.7867 20.3489 17.1661 20.3997C16.5367 20.4511 15.7325 20.4517 14.6 20.4517V21.9517ZM19.8958 18.6771C19.5842 19.2887 19.087 19.7858 18.4755 20.0974L19.1565 21.4339C20.0502 20.9785 20.7769 20.2519 21.2323 19.3581L19.8958 18.6771ZM8.75 21.2017V17.2017H7.25V21.2017H8.75ZM10 15.9517H14V14.4517H10V15.9517ZM15.25 17.2017V21.2017H16.75V17.2017H15.25ZM14 15.9517C14.6904 15.9517 15.25 16.5113 15.25 17.2017H16.75C16.75 15.6829 15.5188 14.4517 14 14.4517V15.9517ZM8.75 17.2017C8.75 16.5113 9.30964 15.9517 10 15.9517V14.4517C8.48122 14.4517 7.25 15.6829 7.25 17.2017H8.75ZM8.25 8.20166C8.25 9.4443 7.24264 10.4517 6 10.4517V11.9517C8.07107 11.9517 9.75 10.2727 9.75 8.20166H8.25ZM6 10.4517C4.8556 10.4517 3.90974 9.59661 3.76833 8.49086L2.28045 8.68114C2.51639 10.5261 4.09113 11.9517 6 11.9517V10.4517ZM14.25 8.20166C14.25 9.4443 13.2426 10.4517 12 10.4517V11.9517C14.0711 11.9517 15.75 10.2727 15.75 8.20166H14.25ZM12 10.4517C10.7574 10.4517 9.75 9.4443 9.75 8.20166H8.25C8.25 10.2727 9.92893 11.9517 12 11.9517V10.4517ZM20.2225 8.55534C20.0533 9.62978 19.1219 10.4517 18 10.4517V11.9517C19.8718 11.9517 21.422 10.5811 21.7042 8.78864L20.2225 8.55534ZM18 10.4517C16.7574 10.4517 15.75 9.4443 15.75 8.20166H14.25C14.25 10.2727 15.9289 11.9517 18 11.9517V10.4517ZM3.8394 8.12259L5.19347 4.73742L3.80075 4.18034L2.44669 7.5655L3.8394 8.12259ZM18.382 4.64264L20.118 8.11478L21.4597 7.44396L19.7236 3.97182L18.382 4.64264ZM6.35407 3.95166H10V2.45166H6.35407V3.95166ZM9.73544 8.34875L10.7354 3.34875L9.26456 3.05457L8.26456 8.05457L9.73544 8.34875ZM10 3.95166H14V2.45166H10V3.95166ZM14 3.95166H17.2639V2.45166H14V3.95166ZM15.7354 8.05457L14.7354 3.05457L13.2646 3.34875L14.2646 8.34875L15.7354 8.05457ZM19.7236 3.97182C19.2578 3.04017 18.3056 2.45166 17.2639 2.45166V3.95166C17.7374 3.95166 18.1702 4.21916 18.382 4.64264L19.7236 3.97182ZM21.7042 8.78865C21.7854 8.27275 21.6386 7.80175 21.4597 7.44396L20.118 8.11478C20.2168 8.3124 20.2378 8.45781 20.2225 8.55533L21.7042 8.78865ZM5.19347 4.73742C5.3833 4.26285 5.84294 3.95166 6.35407 3.95166V2.45166C5.22958 2.45166 4.21838 3.13628 3.80075 4.18034L5.19347 4.73742ZM3.76833 8.49086C3.75789 8.40925 3.77242 8.29004 3.8394 8.12259L2.44669 7.5655C2.32468 7.87053 2.22633 8.25799 2.28045 8.68114L3.76833 8.49086Z" fill="#1E232D"/>
</svg>
