<svg width="25" height="24" viewBox="0 0 25 24" fill="none" xmlns="http://www.w3.org/2000/svg">
<path d="M3.5 4H4.10632C5.12694 4 5.98384 4.7685 6.09452 5.78311L6.90548 13.2169C7.01616 14.2315 7.87306 15 8.89368 15H17.546C18.4602 15 19.2581 14.3801 19.484 13.4942L20.8639 8.08311C21.1864 6.81854 20.231 5.58889 18.926 5.58889H7.1M7.12476 18.6249H7.87476M7.12476 19.3749H7.87476M18.1248 18.6249H18.8748M18.1248 19.3749H18.8748M8.5 19C8.5 19.5523 8.05229 20 7.5 20C6.94772 20 6.5 19.5523 6.5 19C6.5 18.4477 6.94772 18 7.5 18C8.05229 18 8.5 18.4477 8.5 19ZM19.5 19C19.5 19.5523 19.0523 20 18.5 20C17.9477 20 17.5 19.5523 17.5 19C17.5 18.4477 17.9477 18 18.5 18C19.0523 18 19.5 18.4477 19.5 19Z" stroke="#1E232D" stroke-width="1.5" stroke-linecap="round"/>
</svg>
