<svg width="15" height="15" viewBox="0 0 15 15" fill="none" xmlns="http://www.w3.org/2000/svg">
<path d="M8 4.72727V7.99923C8 7.99954 8.00015 7.99984 8.0004 8.00003L10.1818 9.63636M2.15564 9.36364C2.05383 8.92556 2 8.46906 2 8C2 7.53094 2.05383 7.07444 2.15564 6.63636M6.90909 2.09893C7.26285 2.03395 7.62746 2 8 2C11.3137 2 14 4.68629 14 8C14 11.3137 11.3137 14 8 14C7.62746 14 7.26285 13.966 6.90909 13.9011M5 2.80269C4.18161 3.2761 3.48542 3.93726 2.97033 4.72727M2.97033 11.2727C3.48542 12.0627 4.18161 12.7239 5 13.1973" stroke="#767676" stroke-linecap="round"/>
</svg>
